Coordinates
version=1
nRows=27
nColumns=38
inDegrees=no

Units are S.I. units (second, meters, Newtons, ...)
If the header above contains a line with 'inDegrees', this indicates whether rotational values are in degrees (yes) or radians (no).

endheader
time	pelvis_tilt	pelvis_list	pelvis_rotation	pelvis_tx	pelvis_ty	pelvis_tz	hip_flexion_r	hip_adduction_r	hip_rotation_r	knee_angle_r	ankle_angle_r	subtalar_angle_r	mtp_angle_r	hip_flexion_l	hip_adduction_l	hip_rotation_l	knee_angle_l	ankle_angle_l	subtalar_angle_l	mtp_angle_l	lumbar_extension	lumbar_bending	lumbar_rotation	arm_flex_r	arm_add_r	arm_rot_r	elbow_flex_r	pro_sup_r	wrist_flex_r	wrist_dev_r	arm_flex_l	arm_add_l	arm_rot_l	elbow_flex_l	pro_sup_l	wrist_flex_l	wrist_dev_l
1	2.07713	1.3731	-0.51215	0.813058	0.713276	1.0123	0.0796811	0.173225	-0.540175	0.315295	0.0870711	0	0	0.225428	-0.267176	0.0302709	1.27427	-0.129872	0	0	-0.322564	0.201439	0.0796197	-0.0546098	-0.266093	0.00863589	0.405036	1.40848	0	0	0.0179371	-0.181114	0.346764	0.37563	1.29863	0	0
1.01	2.03355	1.37334	-0.479203	0.814238	0.723055	1.01077	0.0716716	0.181418	-0.53254	0.307371	0.0991059	0	0	0.248324	-0.264803	0.0387363	1.27781	-0.114402	0	0	-0.308559	0.206491	0.0878248	-0.060667	-0.274662	0.00942261	0.411435	1.41234	0	0	0.0124408	-0.176526	0.34998	0.374133	1.29641	0	0
1.02	2.04775	1.37456	-0.50128	0.816119	0.730899	1.01189	0.0545968	0.183455	-0.525974	0.297083	0.102402	0	0	0.264022	-0.262739	0.0373863	1.27376	-0.111537	0	0	-0.311977	0.20275	0.0947852	-0.0571113	-0.278562	0.0140833	0.414143	1.41357	0	0	0.0164421	-0.174851	0.353766	0.370713	1.29217	0	0
1.03	2.07112	1.37516	-0.532672	0.81806	0.738673	1.01314	0.0346834	0.185541	-0.518061	0.284605	0.105086	0	0	0.276088	-0.260747	0.034303	1.26522	-0.106404	0	0	-0.317636	0.198155	0.102264	-0.0523823	-0.282072	0.0208582	0.414741	1.41236	0	0	0.0207809	-0.17345	0.356338	0.367397	1.28711	0	0
1.04	2.09772	1.37559	-0.567677	0.820024	0.746389	1.0144	0.0140643	0.18735	-0.508582	0.271458	0.107134	0	0	0.285849	-0.258954	0.0291228	1.25287	-0.098873	0	0	-0.324057	0.192931	0.110307	-0.0475933	-0.285773	0.0306972	0.415467	1.40907	0	0	0.0250777	-0.172208	0.358084	0.364863	1.28106	0	0
1.05	2.14162	1.37845	-0.619073	0.820658	0.753914	1.01586	-0.00643135	0.181933	-0.499322	0.261269	0.11007	0	0	0.294604	-0.240266	0.0119757	1.24409	-0.0109451	0	0	-0.332339	0.185324	0.116756	-0.0419366	-0.290594	0.039915	0.415683	1.40564	0	0	0.0304659	-0.168604	0.358225	0.361594	1.27617	0	0
1.06	2.16519	1.37473	-0.653178	0.824164	0.761715	1.01719	-0.0313523	0.190158	-0.48281	0.242328	0.107926	0	0	0.296061	-0.256501	0.0134688	1.2159	-0.0812663	0	0	-0.34033	0.180379	0.127865	-0.0373225	-0.291024	0.0523052	0.415766	1.39762	0	0	0.0343058	-0.169419	0.357004	0.359377	1.27013	0	0
1.07	2.21391	1.37702	-0.708854	0.824731	0.769114	1.01868	-0.0519829	0.183598	-0.472028	0.231967	0.109061	0	0	0.30147	-0.236507	-0.00382478	1.20013	0.0112664	0	0	-0.349341	0.17184	0.133127	-0.0300072	-0.294591	0.0617249	0.41415	1.39255	0	0	0.040198	-0.165693	0.35518	0.355238	1.26637	0	0
1.08	2.29835	1.37358	-0.803537	0.828784	0.776156	1.02156	-0.0853548	0.1822	-0.452607	0.212625	0.103491	0	0	0.290831	-0.246267	-0.00973572	1.16115	-0.0647992	0	0	-0.369533	0.15459	0.141737	-0.0170517	-0.289124	0.0727077	0.406476	1.38436	0	0	0.0492825	-0.169061	0.350491	0.351266	1.26292	0	0
1.09	2.3422	1.37062	-0.855781	0.83079	0.783963	1.02285	-0.110221	0.1811	-0.43868	0.199078	0.104538	0	0	0.287906	-0.244215	-0.0204963	1.13044	-0.0556186	0	0	-0.379391	0.146746	0.148517	-0.0102754	-0.28978	0.0809586	0.403852	1.37911	0	0	0.0541274	-0.16733	0.347733	0.346614	1.26142	0	0
1.1	2.38288	1.36819	-0.904076	0.832736	0.791708	1.02397	-0.133166	0.179102	-0.425782	0.187073	0.105367	0	0	0.284636	-0.242233	-0.0333347	1.09641	-0.0460225	0	0	-0.388044	0.138841	0.154045	-0.00360977	-0.290388	0.0895553	0.402011	1.37344	0	0	0.0587695	-0.166062	0.346594	0.341274	1.26311	0	0
1.11	2.42182	1.36588	-0.949598	0.83471	0.799335	1.025	-0.155175	0.176881	-0.412747	0.175269	0.104817	0	0	0.280367	-0.240304	-0.0485232	1.05824	-0.0368712	0	0	-0.396416	0.130845	0.158263	0.00352955	-0.290472	0.098618	0.399636	1.36699	0	0	0.0640529	-0.165204	0.344888	0.335276	1.2656	0	0
1.12	2.4592	1.36333	-0.993141	0.836643	0.806872	1.02595	-0.176386	0.17422	-0.399723	0.164507	0.104539	0	0	0.27462	-0.238433	-0.0663129	1.01653	-0.0271659	0	0	-0.404951	0.122971	0.161873	0.0109203	-0.290507	0.108105	0.396878	1.36089	0	0	0.0697094	-0.164512	0.342412	0.329392	1.26744	0	0
1.13	2.45938	1.35747	-1.00102	0.838368	0.815697	1.02568	-0.198104	0.179149	-0.386415	0.153418	0.107421	0	0	0.268882	-0.242635	-0.0794231	0.977341	-0.00997747	0	0	-0.407611	0.124836	0.168586	0.00966074	-0.297067	0.133515	0.403335	1.33535	0	0	0.0703515	-0.160979	0.336011	0.321824	1.27445	0	0
1.14	2.47536	1.3558	-1.01716	0.84054	0.823017	1.026	-0.214258	0.180906	-0.361307	0.14551	0.0970263	0	0	0.267434	-0.243488	-0.0957139	0.933988	0.00935893	0	0	-0.413863	0.119517	0.166445	0.0162732	-0.29282	0.140756	0.402385	1.33093	0	0	0.0774451	-0.164986	0.335397	0.317439	1.2748	0	0
1.15	2.50172	1.3538	-1.04565	0.841961	0.830586	1.02637	-0.231947	0.178522	-0.355197	0.137688	0.0989908	0	0	0.261651	-0.240757	-0.114308	0.887913	0.0179616	0	0	-0.420272	0.114095	0.167155	0.0212047	-0.292205	0.145978	0.40226	1.32617	0	0	0.0821504	-0.165416	0.334181	0.313363	1.27518	0	0
1.16	2.52405	1.35253	-1.06959	0.84349	0.838393	1.02652	-0.246942	0.175798	-0.348074	0.132671	0.100276	0	0	0.257088	-0.237467	-0.133167	0.84116	0.0261763	0	0	-0.42577	0.108857	0.167282	0.0253883	-0.291504	0.149979	0.40487	1.32123	0	0	0.0866425	-0.166511	0.332539	0.310841	1.27583	0	0
1.17	2.54344	1.35272	-1.0903	0.844626	0.845923	1.0265	-0.258764	0.172015	-0.34493	0.13056	0.104115	0	0	0.254009	-0.232863	-0.152839	0.793203	0.0297322	0	0	-0.429522	0.103923	0.167473	0.0287482	-0.291736	0.154001	0.408404	1.31675	0	0	0.0904022	-0.167226	0.331092	0.309641	1.27666	0	0
1.18	2.56344	1.35439	-1.11338	0.84545	0.853811	1.02623	-0.26768	0.165119	-0.358577	0.130489	0.118422	0	0	0.251236	-0.224698	-0.16971	0.744193	0.0230508	0	0	-0.430852	0.0995633	0.169503	0.0320667	-0.295075	0.158579	0.410935	1.31255	0	0	0.0913693	-0.165233	0.329908	0.309365	1.27784	0	0
1.19	2.57421	1.35555	-1.12031	0.846469	0.861427	1.02582	-0.275432	0.163751	-0.342997	0.13304	0.114681	0	0	0.251045	-0.220327	-0.193212	0.69516	0.0303465	0	0	-0.43325	0.096002	0.163815	0.0356461	-0.292234	0.164124	0.413759	1.30819	0	0	0.096146	-0.169506	0.329188	0.309073	1.27886	0	0
1.2	2.58707	1.35708	-1.13354	0.847058	0.870527	1.02517	-0.282988	0.15899	-0.355685	0.13339	0.127056	0	0	0.249372	-0.211342	-0.206235	0.646909	0.0261862	0	0	-0.433158	0.0939369	0.163351	0.0388779	-0.295088	0.169453	0.415085	1.30388	0	0	0.0962881	-0.168189	0.327618	0.309311	1.27894	0	0
1.21	2.59157	1.35977	-1.13211	0.847513	0.877344	1.02451	-0.288608	0.157957	-0.344061	0.136486	0.123928	0	0	0.251256	-0.203764	-0.22382	0.600158	0.0316611	0	0	-0.433515	0.092533	0.155913	0.0423271	-0.293343	0.175176	0.416841	1.29945	0	0	0.099912	-0.171428	0.326276	0.309275	1.27812	0	0
1.22	2.59604	1.36229	-1.13231	0.847793	0.885389	1.0237	-0.294263	0.155883	-0.345803	0.138357	0.128055	0	0	0.252318	-0.194342	-0.237245	0.553738	0.0307839	0	0	-0.432905	0.092032	0.150777	0.0457574	-0.293694	0.180838	0.417476	1.29465	0	0	0.101468	-0.172295	0.325905	0.309114	1.27828	0	0
1.23	2.63661	1.36794	-1.16771	0.847887	0.892429	1.02365	-0.295588	0.144088	-0.370526	0.144976	0.142756	0	0	0.249584	-0.176332	-0.259111	0.499325	0.0171884	0	0	-0.435961	0.083245	0.142916	0.0556153	-0.292	0.185298	0.413459	1.28955	0	0	0.105996	-0.173481	0.324414	0.309517	1.27826	0	0
1.24	2.64375	1.3727	-1.16606	0.847802	0.900259	1.02258	-0.296146	0.141036	-0.363662	0.15411	0.141652	0	0	0.253135	-0.163097	-0.274201	0.454024	0.0181237	0	0	-0.434672	0.0820697	0.132994	0.0596043	-0.289673	0.188642	0.41232	1.28568	0	0	0.109466	-0.176183	0.323321	0.310539	1.279	0	0
1.25	2.64735	1.3773	-1.16326	0.847664	0.908632	1.02133	-0.297602	0.137525	-0.370968	0.161031	0.14859	0	0	0.255304	-0.149773	-0.285892	0.410498	0.0187067	0	0	-0.431381	0.0819717	0.126082	0.0620314	-0.289371	0.191686	0.411835	1.28262	0	0	0.110171	-0.176875	0.323275	0.310712	1.2804	0	0
1.26	2.65101	1.38302	-1.16	0.847372	0.917144	1.01987	-0.296664	0.132902	-0.380359	0.171076	0.156921	0	0	0.257768	-0.134722	-0.294706	0.367376	0.0202415	0	0	-0.426747	0.0817064	0.118697	0.0635854	-0.289125	0.194442	0.411825	1.27962	0	0	0.110673	-0.177528	0.324134	0.310629	1.28203	0	0
